<mxfile host="Electron" modified="2024-01-04T15:54:22.969Z" agent="Mozilla/5.0 (Windows NT 10.0; Win64; x64) AppleWebKit/537.36 (KHTML, like Gecko) draw.io/22.1.16 Chrome/120.0.6099.109 Electron/28.1.0 Safari/537.36" etag="-MDL7VtTxty4KWlFr9B6" version="22.1.16" type="device">
  <diagram name="Page-1" id="iqVh3xyiy0j3uIlfM35b">
    <mxGraphModel dx="1434" dy="836" grid="1" gridSize="10" guides="1" tooltips="1" connect="1" arrows="1" fold="1" page="1" pageScale="1" pageWidth="850" pageHeight="1100" math="0" shadow="0">
      <root>
        <mxCell id="0" />
        <mxCell id="1" parent="0" />
        <mxCell id="3jk27wym2ssst1sF_PVz-2" value="" style="ellipse;whiteSpace=wrap;html=1;aspect=fixed;fillColor=none;strokeWidth=3;strokeColor=#808080;" parent="1" vertex="1">
          <mxGeometry x="300" y="190" width="270" height="270" as="geometry" />
        </mxCell>
        <mxCell id="3jk27wym2ssst1sF_PVz-3" value="" style="ellipse;whiteSpace=wrap;html=1;dashed=1;fillColor=none;strokeWidth=3;strokeColor=#808080;" parent="1" vertex="1">
          <mxGeometry x="300" y="283" width="270" height="100" as="geometry" />
        </mxCell>
        <mxCell id="3jk27wym2ssst1sF_PVz-4" value="" style="html=1;whiteSpace=wrap;shape=isoCube2;backgroundOutline=1;isoAngle=15;fillColor=#0050ef;fontColor=#ffffff;strokeColor=#001DBC;" parent="1" vertex="1">
          <mxGeometry x="390" y="260" width="90" height="100" as="geometry" />
        </mxCell>
        <mxCell id="3jk27wym2ssst1sF_PVz-6" value="" style="shape=cross;whiteSpace=wrap;html=1;size=0;fillColor=#FFFFFF;rotation=-90;" parent="1" vertex="1">
          <mxGeometry x="511.17999999999995" y="273.46" width="16" height="16" as="geometry" />
        </mxCell>
        <mxCell id="3jk27wym2ssst1sF_PVz-9" value="" style="endArrow=none;html=1;rounded=0;exitX=0;exitY=0;exitDx=8;exitDy=8;exitPerimeter=0;strokeWidth=3;strokeColor=#808080;" parent="1" source="3jk27wym2ssst1sF_PVz-6" edge="1">
          <mxGeometry width="50" height="50" relative="1" as="geometry">
            <mxPoint x="610" y="240" as="sourcePoint" />
            <mxPoint x="680" y="200" as="targetPoint" />
          </mxGeometry>
        </mxCell>
        <mxCell id="3jk27wym2ssst1sF_PVz-10" value="" style="endArrow=classic;html=1;rounded=0;exitX=0;exitY=0;exitDx=8;exitDy=8;exitPerimeter=0;entryX=0.49;entryY=0.663;entryDx=0;entryDy=0;entryPerimeter=0;dashed=1;dashPattern=1 1;strokeWidth=3;strokeColor=#808080;" parent="1" source="3jk27wym2ssst1sF_PVz-6" target="3jk27wym2ssst1sF_PVz-4" edge="1">
          <mxGeometry width="50" height="50" relative="1" as="geometry">
            <mxPoint x="620" y="350" as="sourcePoint" />
            <mxPoint x="670" y="300" as="targetPoint" />
          </mxGeometry>
        </mxCell>
        <mxCell id="3jk27wym2ssst1sF_PVz-11" value="Single View along the arrow onto the object (cube)" style="text;html=1;strokeColor=none;fillColor=none;align=center;verticalAlign=middle;whiteSpace=wrap;rounded=0;fontSize=12;fontColor=#808080;" parent="1" vertex="1">
          <mxGeometry x="680" y="160" width="110" height="40" as="geometry" />
        </mxCell>
        <mxCell id="3jk27wym2ssst1sF_PVz-12" value="Position on the sphere that encodes the view" style="text;html=1;strokeColor=none;fillColor=none;align=center;verticalAlign=middle;whiteSpace=wrap;rounded=0;fontSize=12;fontColor=#808080;" parent="1" vertex="1">
          <mxGeometry x="660" y="283" width="100" height="57" as="geometry" />
        </mxCell>
        <mxCell id="3jk27wym2ssst1sF_PVz-14" value="" style="endArrow=none;html=1;rounded=0;exitX=0;exitY=0;exitDx=8;exitDy=8;exitPerimeter=0;entryX=0;entryY=0.5;entryDx=0;entryDy=0;strokeWidth=2;strokeColor=#808080;" parent="1" source="3jk27wym2ssst1sF_PVz-6" target="3jk27wym2ssst1sF_PVz-12" edge="1">
          <mxGeometry width="50" height="50" relative="1" as="geometry">
            <mxPoint x="610" y="400" as="sourcePoint" />
            <mxPoint x="660" y="350" as="targetPoint" />
          </mxGeometry>
        </mxCell>
      </root>
    </mxGraphModel>
  </diagram>
</mxfile>
